<svg width="15" height="15" viewBox="0 0 15 15" fill="none" xmlns="http://www.w3.org/2000/svg">
<path d="M10.915 9.14941C7.3877 9.14941 5.19336 7.03711 5.19336 3.61914C5.19336 2.66211 5.35059 1.78711 5.60352 1.30859C5.72656 1.06934 5.76758 0.905273 5.76758 0.720703C5.76758 0.392578 5.50781 0.0712891 5.11133 0.0712891C5.00879 0.0712891 4.83105 0.105469 4.60547 0.194336C2.00781 1.24707 0.223633 3.92676 0.223633 6.8252C0.223633 10.9951 3.25879 14.0371 7.42871 14.0371C10.3887 14.0371 12.8564 12.4375 13.9844 9.85352C14.0869 9.62109 14.1211 9.42285 14.1211 9.29297C14.1211 8.91016 13.8408 8.6709 13.5195 8.6709C13.3555 8.6709 13.1982 8.69824 12.9727 8.80078C12.4668 9.0127 11.6807 9.14941 10.915 9.14941ZM1.7207 6.79102C1.7207 4.98633 2.60254 3.21582 4.05176 2.17676C3.89453 2.67578 3.80566 3.22266 3.80566 3.82422C3.80566 7.9873 6.38281 10.5098 10.6416 10.5098C11.1475 10.5098 11.585 10.4551 11.9951 10.3115C11.0312 11.7129 9.30859 12.54 7.46289 12.54C4.14746 12.54 1.7207 10.1133 1.7207 6.79102Z" fill="#FFC634"/>
</svg>
