<svg width="16" height="16" viewBox="0 0 16 16" fill="none" xmlns="http://www.w3.org/2000/svg">
<path d="M7.98242 3.18359C8.39258 3.18359 8.73438 2.8418 8.73438 2.43164V1.04395C8.73438 0.640625 8.39258 0.291992 7.98242 0.291992C7.57227 0.291992 7.23047 0.640625 7.23047 1.04395V2.43164C7.23047 2.8418 7.57227 3.18359 7.98242 3.18359ZM11.4346 4.63281C11.7217 4.91309 12.2002 4.91309 12.4941 4.62598L13.4785 3.6416C13.7588 3.35449 13.7588 2.8623 13.4717 2.5752C13.1846 2.29492 12.6992 2.29492 12.4121 2.58203L11.4277 3.57324C11.1406 3.85352 11.1475 4.33887 11.4346 4.63281ZM4.53027 4.63281C4.81738 4.3457 4.81738 3.85352 4.54395 3.57324L3.55957 2.58203C3.2793 2.30176 2.78711 2.29492 2.5 2.5752C2.21289 2.8623 2.21289 3.35449 2.48633 3.63477L3.4707 4.62598C3.75781 4.91309 4.24316 4.91309 4.53027 4.63281ZM7.98242 11.7354C9.99219 11.7354 11.6533 10.0742 11.6533 8.06445C11.6533 6.04785 9.99219 4.38672 7.98242 4.38672C5.97266 4.38672 4.31152 6.04785 4.31152 8.06445C4.31152 10.0742 5.97266 11.7354 7.98242 11.7354ZM7.98242 10.2998C6.75879 10.2998 5.74707 9.28125 5.74707 8.06445C5.74707 6.84082 6.75879 5.8291 7.98242 5.8291C9.19922 5.8291 10.2178 6.84082 10.2178 8.06445C10.2178 9.28125 9.19922 10.2998 7.98242 10.2998ZM12.8633 8.06445C12.8633 8.47461 13.2051 8.81641 13.6152 8.81641H14.9961C15.3994 8.81641 15.748 8.47461 15.748 8.06445C15.748 7.6543 15.3994 7.3125 14.9961 7.3125H13.6152C13.2051 7.3125 12.8633 7.6543 12.8633 8.06445ZM3.1084 8.06445C3.1084 7.6543 2.75977 7.3125 2.35645 7.3125H0.975586C0.56543 7.3125 0.223633 7.6543 0.223633 8.06445C0.223633 8.47461 0.56543 8.81641 0.975586 8.81641H2.35645C2.75977 8.81641 3.1084 8.47461 3.1084 8.06445ZM11.4277 11.5098C11.1406 11.7969 11.1475 12.2754 11.4346 12.5693L12.4258 13.5537C12.7061 13.8408 13.1914 13.8271 13.4854 13.54C13.7656 13.2598 13.7656 12.7744 13.4785 12.4873L12.4873 11.5029C12.2002 11.2227 11.7148 11.2227 11.4277 11.5098ZM4.54395 11.5098C4.25 11.2227 3.75781 11.2227 3.47754 11.5029L2.49316 12.4805C2.20605 12.7676 2.19922 13.2529 2.47949 13.54C2.7666 13.8271 3.25879 13.834 3.5459 13.5469L4.53027 12.5693C4.81738 12.2754 4.81738 11.7969 4.54395 11.5098ZM7.98242 12.9453C7.57227 12.9453 7.23047 13.2871 7.23047 13.6973V15.0781C7.23047 15.4883 7.57227 15.8301 7.98242 15.8301C8.39258 15.8301 8.73438 15.4883 8.73438 15.0781V13.6973C8.73438 13.2871 8.39258 12.9453 7.98242 12.9453Z" fill="url(#paint0_linear_331_245)"/>
<defs>
<linearGradient id="paint0_linear_331_245" x1="-2.5" y1="9" x2="18.5" y2="9" gradientUnits="userSpaceOnUse">
<stop stop-color="#FF00B8"/>
<stop offset="1" stop-color="#FFB800"/>
</linearGradient>
</defs>
</svg>
